<svg width="422" height="55" viewBox="0 0 422 55" fill="none" xmlns="http://www.w3.org/2000/svg">
<path d="M0.521219 54H19.8172L36.2332 34.848L52.6492 54H72.3052L48.4732 26.784L72.0172 2.448H52.4332L36.2332 19.152L20.0332 2.448H0.809219L23.9932 26.784L0.521219 54ZM99.47 15.912C82.262 15.912 70.238 23.76 70.238 35.352C70.238 47.448 83.198 54.936 102.35 54.936C112.286 54.936 122.51 53.136 127.406 50.04L122.15 41.616C118.478 43.776 110.918 45.36 103.574 45.36C96.59 45.36 90.326 43.632 88.094 39.312H127.406C127.478 38.592 127.55 36.504 127.55 35.424C127.55 23.472 116.39 15.912 99.47 15.912ZM99.326 24.912C105.302 24.912 110.198 27.792 110.486 31.896H87.734C89.246 27.72 93.566 24.912 99.326 24.912ZM144.153 54H162.225L173.889 29.88L185.481 54H203.769L220.977 16.848H203.337L193.473 41.184L181.593 16.848H166.257L154.305 40.752L144.441 16.848H126.873L144.153 54ZM239.703 54.936C250.143 54.936 258.567 51.552 262.095 45.504L262.167 46.008C262.815 51.48 268.791 54.936 276.423 54.936C281.319 54.936 287.151 53.784 289.743 51.408L286.647 43.848C285.855 44.784 283.695 45.36 282.327 45.36C280.311 45.36 278.871 44.136 278.871 42.408V30.96C278.871 21.6 266.919 15.984 251.727 15.984C241.143 15.984 228.903 18.504 222.135 22.608L227.679 30.96C232.791 27.792 242.871 25.416 251.727 25.416C257.055 25.416 262.095 26.496 262.095 28.584C262.095 29.448 261.087 30.096 259.575 30.24L245.391 31.536C230.199 32.904 220.983 38.088 220.983 44.928C220.983 51.192 228.471 54.936 239.703 54.936ZM245.751 45.432C240.927 45.432 238.047 44.712 238.047 42.624C238.047 40.392 241.791 39.024 248.703 38.448L261.807 37.296V38.592C260.943 42.408 254.319 45.432 245.751 45.432ZM312.089 54.936C321.089 54.936 328.289 50.976 331.241 44.28L333.545 54H348.233V0.287996H331.169V26.496C328.217 19.8 321.017 15.912 312.017 15.912C298.481 15.912 289.121 23.544 289.121 35.424C289.121 47.304 298.481 54.936 312.089 54.936ZM318.929 43.776C311.513 43.776 306.113 40.32 306.113 35.424C306.113 30.6 311.441 27.072 318.929 27.072C326.417 27.072 331.745 30.6 331.745 35.424C331.745 40.248 326.417 43.776 318.929 43.776ZM371.258 54.936C381.698 54.936 390.122 51.552 393.65 45.504L393.722 46.008C394.37 51.48 400.346 54.936 407.978 54.936C412.874 54.936 418.706 53.784 421.298 51.408L418.202 43.848C417.41 44.784 415.25 45.36 413.882 45.36C411.866 45.36 410.426 44.136 410.426 42.408V30.96C410.426 21.6 398.474 15.984 383.282 15.984C372.698 15.984 360.458 18.504 353.69 22.608L359.234 30.96C364.346 27.792 374.426 25.416 383.282 25.416C388.61 25.416 393.65 26.496 393.65 28.584C393.65 29.448 392.642 30.096 391.13 30.24L376.946 31.536C361.754 32.904 352.538 38.088 352.538 44.928C352.538 51.192 360.026 54.936 371.258 54.936ZM377.306 45.432C372.482 45.432 369.602 44.712 369.602 42.624C369.602 40.392 373.346 39.024 380.258 38.448L393.362 37.296V38.592C392.498 42.408 385.874 45.432 377.306 45.432Z" fill="white"/>
</svg>
